HIERARCHY
ROOT Hips
{
	OFFSET 0.000000 0.000000 0.000000
	CHANNELS 6 Xposition Yposition Zposition Zrotation Yrotation Xrotation 
	JOINT LHipJoint
	{
		OFFSET 0.000000 0.000000 0.000000
		CHANNELS 3 Zrotation Yrotation Xrotation
		JOINT LeftUpLeg
		{
			OFFSET 1.363060 -1.794630 0.839290
			CHANNELS 3 Zrotation Yrotation Xrotation
			JOINT LeftLeg
			{
				OFFSET 2.448110 -6.726130 0.000000
				CHANNELS 3 Zrotation Yrotation Xrotation
				JOINT LeftFoot
				{
					OFFSET 2.562200 -7.039590 0.000000
					CHANNELS 3 Zrotation Yrotation Xrotation
					JOINT LeftToeBase
					{
						OFFSET 0.157640 -0.433110 2.322550
						CHANNELS 3 Zrotation Yrotation Xrotation
						End Site
						{
							OFFSET 0.000000 0.000000 0.000000
						}
					}
				}
			}
		}
	}
	JOINT RHipJoint
	{
		OFFSET 0.000000 0.000000 0.000000
		CHANNELS 3 Zrotation Yrotation Xrotation
		JOINT RightUpLeg
		{
			OFFSET -1.305520 -1.794630 0.839290
			CHANNELS 3 Zrotation Yrotation Xrotation
			JOINT RightLeg
			{
				OFFSET -2.542530 -6.985550 0.000000
				CHANNELS 3 Zrotation Yrotation Xrotation
				JOINT RightFoot
				{
					OFFSET -2.568260 -7.056230 0.000000
					CHANNELS 3 Zrotation Yrotation Xrotation
					JOINT RightToeBase
					{
						OFFSET -0.164730 -0.452590 2.363150
						CHANNELS 3 Zrotation Yrotation Xrotation
						End Site
						{
							OFFSET 0.000000 0.000000 0.000000
						}
					}
				}
			}
		}
	}
	JOINT LowerBack
	{
		OFFSET 0.000000 0.000000 0.000000
		CHANNELS 3 Zrotation Yrotation Xrotation
		JOINT Spine
		{
			OFFSET 0.028270 2.035590 -0.193380
			CHANNELS 3 Zrotation Yrotation Xrotation
			JOINT Spine1
			{
				OFFSET 0.056720 2.048850 -0.042750
				CHANNELS 3 Zrotation Yrotation Xrotation
				JOINT Neck
				{
					OFFSET 0.000000 0.000000 0.000000
					CHANNELS 3 Zrotation Yrotation Xrotation
					JOINT Neck1
					{
						OFFSET -0.054170 1.746240 0.172020
						CHANNELS 3 Zrotation Yrotation Xrotation
						JOINT Head
						{
							OFFSET 0.104070 1.761360 -0.123970
							CHANNELS 3 Zrotation Yrotation Xrotation
							End Site
							{
								OFFSET 0.000000 0.000000 0.000000
							}
						}
					}
				}
				JOINT LeftShoulder
				{
					OFFSET 0.000000 0.000000 0.000000
					CHANNELS 3 Zrotation Yrotation Xrotation
					JOINT LeftArm
					{
						OFFSET 3.362410 1.200890 -0.311210
						CHANNELS 3 Zrotation Yrotation Xrotation
						JOINT LeftForeArm
						{
							OFFSET 4.983000 -0.000000 -0.000000
							CHANNELS 3 Zrotation Yrotation Xrotation
							JOINT LeftHand
							{
								OFFSET 3.483560 -0.000000 -0.000000
								CHANNELS 3 Zrotation Yrotation Xrotation
								JOINT LeftFingerBase
								{
									OFFSET 0.000000 0.000000 0.000000
									CHANNELS 3 Zrotation Yrotation Xrotation
									JOINT LeftHandIndex1
									{
										OFFSET 0.715260 -0.000000 -0.000000
										CHANNELS 3 Zrotation Yrotation Xrotation
										End Site
										{
											OFFSET 0.000000 0.000000 0.000000
										}
									}
								}
								JOINT LThumb
								{
									OFFSET 0.000000 0.000000 0.000000
									CHANNELS 3 Zrotation Yrotation Xrotation
									End Site
									{
										OFFSET 0.000000 0.000000 0.000000
									}
								}
							}
						}
					}
				}
				JOINT RightShoulder
				{
					OFFSET 0.000000 0.000000 0.000000
					CHANNELS 3 Zrotation Yrotation Xrotation
					JOINT RightArm
					{
						OFFSET -3.136600 1.374050 -0.404650
						CHANNELS 3 Zrotation Yrotation Xrotation
						JOINT RightForeArm
						{
							OFFSET -5.241900 -0.000000 -0.000000
							CHANNELS 3 Zrotation Yrotation Xrotation
							JOINT RightHand
							{
								OFFSET -3.444170 -0.000000 -0.000000
								CHANNELS 3 Zrotation Yrotation Xrotation
								JOINT RightFingerBase
								{
									OFFSET 0.000000 0.000000 0.000000
									CHANNELS 3 Zrotation Yrotation Xrotation
									JOINT RightHandIndex1
									{
										OFFSET -0.622530 -0.000000 -0.000000
										CHANNELS 3 Zrotation Yrotation Xrotation
										End Site
										{
											OFFSET 0.000000 0.000000 0.000000
										}
									}
								}
								JOINT RThumb
								{
									OFFSET 0.000000 0.000000 0.000000
									CHANNELS 3 Zrotation Yrotation Xrotation
									End Site
									{
										OFFSET 0.000000 0.000000 0.000000
									}
								}
							}
						}
					}
				}
			}
		}
	}
}
MOTION
Frames: 4
Frame Time: 0.008333
4.105111 17.358445 1.228928 177.951103 -69.121227 -166.961127 -11.338253 2.781092 -0.307435 -9.719589 21.028363 -12.881900 -2.584536 -1.127092 0.438529 1.759484 12.669424 -2.203874 1.303700 -0.000000 -31.931000 9.604878 -1.583259 4.066772 -1.314723 4.641441 -15.742056 2.404704 0.714447 2.845156 1.102667 6.587264 7.092520 1.093600 0.000000 -72.887499 0.029892 -2.872153 -5.230375 -0.468796 -2.934015 -4.284955 -5.866610 -2.750020 -3.603775 8.413506 -9.280464 1.552521 -3.391122 -0.366283 2.565828 0.000000 0.000000 0.000000 15.249252 -1.312741 -4.834113 -73.871086 -41.201580 -6.411232 177.593138 -53.820750 179.765586 13.000915 -5.865101 -0.807261 -0.156350 1.150232 -0.000000 0.000000 0.000000 0.000000 0.000000 0.000000 0.000000 2.721642 -9.023623 -4.556666 89.195262 39.156325 26.482051 -177.479454 66.692029 179.717484 -20.346038 11.724836 -2.318483 0.244375 -0.987261 -0.000000 0.000000 0.000000 0.000000 0.000000 0.000000 0.000000 
4.104637 17.357654 1.237173 177.595718 -69.546077 -166.415196 -11.293562 2.761998 -0.219885 -9.928933 20.415372 -13.193373 -2.577032 -1.122910 0.682717 1.783640 12.736604 -2.330560 1.291600 -0.000000 -31.748500 9.630094 -1.537513 4.006388 -1.432961 4.425625 -16.142648 2.362160 0.678751 3.399559 1.061811 6.326423 6.767231 1.007100 0.000000 -72.931400 -0.023898 -2.933126 -5.222184 -0.487474 -2.990726 -4.271365 -5.940968 -2.806668 -3.565165 8.576875 -9.311817 1.409302 -3.382949 -0.363976 2.524992 0.000000 0.000000 0.000000 15.252860 -1.303529 -4.867305 -73.909226 -41.765654 -6.126174 177.622157 -54.066440 179.764892 13.030544 -5.856763 -0.808247 -0.157493 1.151290 -0.000000 0.000000 0.000000 0.000000 0.000000 0.000000 0.000000 2.857441 -9.059236 -4.392653 88.679788 38.352588 25.968723 -177.512376 66.692225 179.720295 -20.229061 11.668315 -2.293569 0.242753 -0.982591 -0.000000 0.000000 0.000000 0.000000 0.000000 0.000000 0.000000 
4.103479 17.356517 1.245638 177.160290 -70.115506 -165.777991 -11.244715 2.740922 -0.108002 -10.139313 19.678046 -13.539881 -2.566630 -1.116580 0.974913 1.806562 12.781486 -2.468876 1.275300 -0.000001 -31.570100 9.657971 -1.489838 3.928881 -1.550654 4.121295 -16.506949 2.318025 0.647708 3.920031 1.012743 6.006736 6.430241 0.907700 -0.000000 -72.955200 -0.084909 -3.001559 -5.219275 -0.507953 -3.054239 -4.258446 -6.021948 -2.870383 -3.527100 8.760523 -9.361513 1.250853 -3.377695 -0.361631 2.479971 0.000000 0.000000 0.000000 15.251036 -1.321443 -4.909692 -74.003834 -42.402966 -5.750012 177.655770 -54.363532 179.764114 13.060299 -5.857720 -0.810423 -0.158484 1.152853 -0.000000 0.000000 0.000000 0.000000 0.000000 0.000000 0.000000 3.035985 -9.112379 -4.206903 88.074203 37.473304 25.388190 -177.553956 66.704925 179.723622 -20.090152 11.596414 -2.263353 0.240861 -0.976965 -0.000000 0.000000 0.000000 0.000000 0.000000 0.000000 0.000000 
4.101732 17.355031 1.254508 176.617591 -70.842634 -165.032218 -11.192122 2.717377 0.026926 -10.342098 18.803664 -13.893113 -2.551342 -1.108498 1.294684 1.828047 12.808051 -2.606192 1.258400 -0.000000 -31.403700 9.689252 -1.438942 3.826690 -1.667276 3.714199 -16.809875 2.272427 0.621172 4.395865 0.954732 5.628428 6.082256 0.796600 0.000000 -72.958201 -0.153740 -3.077590 -5.210452 -0.529985 -3.124363 -4.244066 -6.107534 -2.941050 -3.489621 8.963308 -9.444246 1.071837 -3.375510 -0.359188 2.429219 0.000000 0.000000 0.000000 15.246583 -1.367090 -4.963678 -74.174514 -43.113495 -5.267738 177.692755 -54.719212 179.763285 13.086877 -5.870349 -0.813890 -0.159021 1.154943 -0.000000 0.000000 0.000000 0.000000 0.000000 0.000000 0.000000 3.260999 -9.196696 -3.998936 87.380467 36.519743 24.744055 -177.605579 66.742596 179.727255 -19.946971 11.524897 -2.232834 0.239072 -0.970659 -0.000000 0.000000 0.000000 0.000000 0.000000 0.000000 0.000000 
